# xmcd
#
# Track frame offsets:
#	182
#	14775
#	35100
#	57462
#	72687
#	90702
#	106802
#	125175
#	143777
#	156687
#	182162
#	195392
#
# Disc length: 2798 seconds
#
# Revision: 1
# Processed by: cddbd v1.4PL0 Copyright (c) Steve Scherf et al.
# Submitted via: audiograbber 1.80.04
#
DISCID=bf0aec0c
DTITLE=Marc Lelangue - Blues you could use
DYEAR=1992
DGENRE=Blues
TTITLE0=coming home
TTITLE1=She caught the Katy
TTITLE2=Mind to travel
TTITLE3=Good morning school girl
TTITLE4=Big boss man
TTITLE5=She belongs to me
TTITLE6=she s tough
TTITLE7=Cadillac assembly
TTITLE8=Key to the highway
TTITLE9=Hoochie Goochie man
TTITLE10=Broadway bound
TTITLE11=Love in vain
EXTD=
EXTT0=
EXTT1=
EXTT2=
EXTT3=
EXTT4=
EXTT5=
EXTT6=
EXTT7=
EXTT8=
EXTT9=
EXTT10=
EXTT11=
PLAYORDER=
